<mxfile host="app.diagrams.net" modified="2021-10-30T13:55:13.371Z" agent="5.0 (Macintosh; Intel Mac OS X 10_15_7) AppleWebKit/537.36 (KHTML, like Gecko) Chrome/95.0.4638.54 Safari/537.36" etag="wYJIqX1fX2v6NlP32jnq" version="15.5.2" type="github">
  <diagram id="y72E2wWyAyc3qI469LQU" name="Page-1">
    <mxGraphModel dx="2064" dy="962" grid="1" gridSize="10" guides="1" tooltips="1" connect="1" arrows="1" fold="1" page="1" pageScale="1" pageWidth="2300" pageHeight="1100" math="0" shadow="0">
      <root>
        <mxCell id="0" />
        <mxCell id="1" parent="0" />
        <mxCell id="ckuAWDI_YxkWUVPJzcsw-14" value="" style="rounded=0;whiteSpace=wrap;html=1;opacity=50;" vertex="1" parent="1">
          <mxGeometry x="50" y="480" width="220" height="130" as="geometry" />
        </mxCell>
        <mxCell id="ckuAWDI_YxkWUVPJzcsw-15" value="" style="endArrow=none;html=1;rounded=0;entryX=1;entryY=0.25;entryDx=0;entryDy=0;exitX=0;exitY=0.25;exitDx=0;exitDy=0;" edge="1" parent="1" source="ckuAWDI_YxkWUVPJzcsw-14" target="ckuAWDI_YxkWUVPJzcsw-14">
          <mxGeometry width="50" height="50" relative="1" as="geometry">
            <mxPoint x="60" y="550" as="sourcePoint" />
            <mxPoint x="110" y="500" as="targetPoint" />
          </mxGeometry>
        </mxCell>
        <mxCell id="ckuAWDI_YxkWUVPJzcsw-16" value="" style="endArrow=none;html=1;rounded=0;entryX=1;entryY=0.25;entryDx=0;entryDy=0;exitX=0;exitY=0.25;exitDx=0;exitDy=0;" edge="1" parent="1">
          <mxGeometry width="50" height="50" relative="1" as="geometry">
            <mxPoint x="50.000000000000114" y="544.5" as="sourcePoint" />
            <mxPoint x="270" y="544.5" as="targetPoint" />
          </mxGeometry>
        </mxCell>
        <mxCell id="ckuAWDI_YxkWUVPJzcsw-17" value="" style="endArrow=none;html=1;rounded=0;entryX=1;entryY=0.25;entryDx=0;entryDy=0;exitX=0;exitY=0.25;exitDx=0;exitDy=0;" edge="1" parent="1">
          <mxGeometry width="50" height="50" relative="1" as="geometry">
            <mxPoint x="50.000000000000114" y="580" as="sourcePoint" />
            <mxPoint x="270" y="580" as="targetPoint" />
          </mxGeometry>
        </mxCell>
        <mxCell id="ckuAWDI_YxkWUVPJzcsw-18" value="Start:9/3/2021&amp;nbsp; &amp;nbsp;&amp;nbsp;" style="text;html=1;strokeColor=none;fillColor=none;align=center;verticalAlign=middle;whiteSpace=wrap;rounded=0;opacity=50;" vertex="1" parent="1">
          <mxGeometry x="50" y="520" width="110" height="30" as="geometry" />
        </mxCell>
        <mxCell id="ckuAWDI_YxkWUVPJzcsw-19" value="ID: 1" style="text;html=1;strokeColor=none;fillColor=none;align=center;verticalAlign=middle;whiteSpace=wrap;rounded=0;opacity=50;" vertex="1" parent="1">
          <mxGeometry x="160" y="520" width="90" height="30" as="geometry" />
        </mxCell>
        <mxCell id="ckuAWDI_YxkWUVPJzcsw-20" value="Finish:9/10/2021" style="text;html=1;strokeColor=none;fillColor=none;align=center;verticalAlign=middle;whiteSpace=wrap;rounded=0;opacity=50;" vertex="1" parent="1">
          <mxGeometry x="50" y="550" width="110" height="30" as="geometry" />
        </mxCell>
        <mxCell id="ckuAWDI_YxkWUVPJzcsw-21" value="Dur:&amp;nbsp; &amp;nbsp; 7&amp;nbsp; day" style="text;html=1;strokeColor=none;fillColor=none;align=center;verticalAlign=middle;whiteSpace=wrap;rounded=0;opacity=50;" vertex="1" parent="1">
          <mxGeometry x="160" y="550" width="90" height="30" as="geometry" />
        </mxCell>
        <mxCell id="ckuAWDI_YxkWUVPJzcsw-22" value="res:" style="text;html=1;strokeColor=none;fillColor=none;align=center;verticalAlign=middle;whiteSpace=wrap;rounded=0;opacity=50;" vertex="1" parent="1">
          <mxGeometry x="50" y="580" width="60" height="30" as="geometry" />
        </mxCell>
        <mxCell id="ckuAWDI_YxkWUVPJzcsw-24" value="&lt;span style=&quot;white-space: pre&quot;&gt;	&lt;/span&gt;组建项目团队" style="text;html=1;strokeColor=none;fillColor=none;align=center;verticalAlign=middle;whiteSpace=wrap;rounded=0;opacity=50;" vertex="1" parent="1">
          <mxGeometry x="50" y="480" width="105" height="30" as="geometry" />
        </mxCell>
        <mxCell id="ckuAWDI_YxkWUVPJzcsw-51" value="" style="rounded=0;whiteSpace=wrap;html=1;opacity=50;" vertex="1" parent="1">
          <mxGeometry x="340" y="310" width="220" height="130" as="geometry" />
        </mxCell>
        <mxCell id="ckuAWDI_YxkWUVPJzcsw-52" value="" style="endArrow=none;html=1;rounded=0;entryX=1;entryY=0.25;entryDx=0;entryDy=0;exitX=0;exitY=0.25;exitDx=0;exitDy=0;" edge="1" parent="1" source="ckuAWDI_YxkWUVPJzcsw-51" target="ckuAWDI_YxkWUVPJzcsw-51">
          <mxGeometry width="50" height="50" relative="1" as="geometry">
            <mxPoint x="350" y="380" as="sourcePoint" />
            <mxPoint x="400" y="330" as="targetPoint" />
          </mxGeometry>
        </mxCell>
        <mxCell id="ckuAWDI_YxkWUVPJzcsw-53" value="" style="endArrow=none;html=1;rounded=0;entryX=1;entryY=0.25;entryDx=0;entryDy=0;exitX=0;exitY=0.25;exitDx=0;exitDy=0;" edge="1" parent="1">
          <mxGeometry width="50" height="50" relative="1" as="geometry">
            <mxPoint x="340.0000000000001" y="374.5" as="sourcePoint" />
            <mxPoint x="560" y="374.5" as="targetPoint" />
          </mxGeometry>
        </mxCell>
        <mxCell id="ckuAWDI_YxkWUVPJzcsw-54" value="" style="endArrow=none;html=1;rounded=0;entryX=1;entryY=0.25;entryDx=0;entryDy=0;exitX=0;exitY=0.25;exitDx=0;exitDy=0;" edge="1" parent="1">
          <mxGeometry width="50" height="50" relative="1" as="geometry">
            <mxPoint x="340.0000000000001" y="410" as="sourcePoint" />
            <mxPoint x="560" y="410" as="targetPoint" />
          </mxGeometry>
        </mxCell>
        <mxCell id="ckuAWDI_YxkWUVPJzcsw-55" value="Start:9/10/2021&amp;nbsp; &amp;nbsp;&amp;nbsp;" style="text;html=1;strokeColor=none;fillColor=none;align=center;verticalAlign=middle;whiteSpace=wrap;rounded=0;opacity=50;" vertex="1" parent="1">
          <mxGeometry x="340" y="350" width="110" height="30" as="geometry" />
        </mxCell>
        <mxCell id="ckuAWDI_YxkWUVPJzcsw-56" value="ID: 2" style="text;html=1;strokeColor=none;fillColor=none;align=center;verticalAlign=middle;whiteSpace=wrap;rounded=0;opacity=50;" vertex="1" parent="1">
          <mxGeometry x="450" y="350" width="90" height="30" as="geometry" />
        </mxCell>
        <mxCell id="ckuAWDI_YxkWUVPJzcsw-57" value="Finish:9/25/2021" style="text;html=1;strokeColor=none;fillColor=none;align=center;verticalAlign=middle;whiteSpace=wrap;rounded=0;opacity=50;" vertex="1" parent="1">
          <mxGeometry x="340" y="380" width="110" height="30" as="geometry" />
        </mxCell>
        <mxCell id="ckuAWDI_YxkWUVPJzcsw-58" value="Dur:&amp;nbsp; &amp;nbsp; 15&amp;nbsp; day" style="text;html=1;strokeColor=none;fillColor=none;align=center;verticalAlign=middle;whiteSpace=wrap;rounded=0;opacity=50;" vertex="1" parent="1">
          <mxGeometry x="450" y="380" width="90" height="30" as="geometry" />
        </mxCell>
        <mxCell id="ckuAWDI_YxkWUVPJzcsw-59" value="res:" style="text;html=1;strokeColor=none;fillColor=none;align=center;verticalAlign=middle;whiteSpace=wrap;rounded=0;opacity=50;" vertex="1" parent="1">
          <mxGeometry x="340" y="410" width="60" height="30" as="geometry" />
        </mxCell>
        <mxCell id="ckuAWDI_YxkWUVPJzcsw-60" value="确定项目主题" style="text;html=1;strokeColor=none;fillColor=none;align=center;verticalAlign=middle;whiteSpace=wrap;rounded=0;opacity=50;" vertex="1" parent="1">
          <mxGeometry x="340" y="310" width="105" height="30" as="geometry" />
        </mxCell>
        <mxCell id="ckuAWDI_YxkWUVPJzcsw-61" value="" style="rounded=0;whiteSpace=wrap;html=1;opacity=50;" vertex="1" parent="1">
          <mxGeometry x="340" y="480" width="220" height="130" as="geometry" />
        </mxCell>
        <mxCell id="ckuAWDI_YxkWUVPJzcsw-62" value="" style="endArrow=none;html=1;rounded=0;entryX=1;entryY=0.25;entryDx=0;entryDy=0;exitX=0;exitY=0.25;exitDx=0;exitDy=0;" edge="1" parent="1" source="ckuAWDI_YxkWUVPJzcsw-61" target="ckuAWDI_YxkWUVPJzcsw-61">
          <mxGeometry width="50" height="50" relative="1" as="geometry">
            <mxPoint x="350" y="550" as="sourcePoint" />
            <mxPoint x="400" y="500" as="targetPoint" />
          </mxGeometry>
        </mxCell>
        <mxCell id="ckuAWDI_YxkWUVPJzcsw-63" value="" style="endArrow=none;html=1;rounded=0;entryX=1;entryY=0.25;entryDx=0;entryDy=0;exitX=0;exitY=0.25;exitDx=0;exitDy=0;" edge="1" parent="1">
          <mxGeometry width="50" height="50" relative="1" as="geometry">
            <mxPoint x="340.0000000000001" y="544.5" as="sourcePoint" />
            <mxPoint x="560" y="544.5" as="targetPoint" />
          </mxGeometry>
        </mxCell>
        <mxCell id="ckuAWDI_YxkWUVPJzcsw-64" value="" style="endArrow=none;html=1;rounded=0;entryX=1;entryY=0.25;entryDx=0;entryDy=0;exitX=0;exitY=0.25;exitDx=0;exitDy=0;" edge="1" parent="1">
          <mxGeometry width="50" height="50" relative="1" as="geometry">
            <mxPoint x="340.0000000000001" y="580" as="sourcePoint" />
            <mxPoint x="560" y="580" as="targetPoint" />
          </mxGeometry>
        </mxCell>
        <mxCell id="ckuAWDI_YxkWUVPJzcsw-65" value="Start:9/10/2021&amp;nbsp; &amp;nbsp;&amp;nbsp;" style="text;html=1;strokeColor=none;fillColor=none;align=center;verticalAlign=middle;whiteSpace=wrap;rounded=0;opacity=50;" vertex="1" parent="1">
          <mxGeometry x="340" y="520" width="110" height="30" as="geometry" />
        </mxCell>
        <mxCell id="ckuAWDI_YxkWUVPJzcsw-66" value="ID: 3" style="text;html=1;strokeColor=none;fillColor=none;align=center;verticalAlign=middle;whiteSpace=wrap;rounded=0;opacity=50;" vertex="1" parent="1">
          <mxGeometry x="450" y="520" width="90" height="30" as="geometry" />
        </mxCell>
        <mxCell id="ckuAWDI_YxkWUVPJzcsw-67" value="Finish:9/15/2021" style="text;html=1;strokeColor=none;fillColor=none;align=center;verticalAlign=middle;whiteSpace=wrap;rounded=0;opacity=50;" vertex="1" parent="1">
          <mxGeometry x="340" y="550" width="110" height="30" as="geometry" />
        </mxCell>
        <mxCell id="ckuAWDI_YxkWUVPJzcsw-68" value="Dur:&amp;nbsp; &amp;nbsp; 5&amp;nbsp; day" style="text;html=1;strokeColor=none;fillColor=none;align=center;verticalAlign=middle;whiteSpace=wrap;rounded=0;opacity=50;" vertex="1" parent="1">
          <mxGeometry x="450" y="550" width="90" height="30" as="geometry" />
        </mxCell>
        <mxCell id="ckuAWDI_YxkWUVPJzcsw-69" value="res:" style="text;html=1;strokeColor=none;fillColor=none;align=center;verticalAlign=middle;whiteSpace=wrap;rounded=0;opacity=50;" vertex="1" parent="1">
          <mxGeometry x="340" y="580" width="60" height="30" as="geometry" />
        </mxCell>
        <mxCell id="ckuAWDI_YxkWUVPJzcsw-70" value="选择项目经理与负责人" style="text;html=1;strokeColor=none;fillColor=none;align=center;verticalAlign=middle;whiteSpace=wrap;rounded=0;opacity=50;" vertex="1" parent="1">
          <mxGeometry x="340" y="480" width="140" height="30" as="geometry" />
        </mxCell>
        <mxCell id="ckuAWDI_YxkWUVPJzcsw-71" value="" style="rounded=0;whiteSpace=wrap;html=1;opacity=50;" vertex="1" parent="1">
          <mxGeometry x="340" y="660" width="220" height="130" as="geometry" />
        </mxCell>
        <mxCell id="ckuAWDI_YxkWUVPJzcsw-72" value="" style="endArrow=none;html=1;rounded=0;entryX=1;entryY=0.25;entryDx=0;entryDy=0;exitX=0;exitY=0.25;exitDx=0;exitDy=0;" edge="1" parent="1" source="ckuAWDI_YxkWUVPJzcsw-71" target="ckuAWDI_YxkWUVPJzcsw-71">
          <mxGeometry width="50" height="50" relative="1" as="geometry">
            <mxPoint x="350" y="730" as="sourcePoint" />
            <mxPoint x="400" y="680" as="targetPoint" />
          </mxGeometry>
        </mxCell>
        <mxCell id="ckuAWDI_YxkWUVPJzcsw-73" value="" style="endArrow=none;html=1;rounded=0;entryX=1;entryY=0.25;entryDx=0;entryDy=0;exitX=0;exitY=0.25;exitDx=0;exitDy=0;" edge="1" parent="1">
          <mxGeometry width="50" height="50" relative="1" as="geometry">
            <mxPoint x="340.0000000000001" y="724.5" as="sourcePoint" />
            <mxPoint x="560" y="724.5" as="targetPoint" />
          </mxGeometry>
        </mxCell>
        <mxCell id="ckuAWDI_YxkWUVPJzcsw-74" value="" style="endArrow=none;html=1;rounded=0;entryX=1;entryY=0.25;entryDx=0;entryDy=0;exitX=0;exitY=0.25;exitDx=0;exitDy=0;" edge="1" parent="1">
          <mxGeometry width="50" height="50" relative="1" as="geometry">
            <mxPoint x="340.0000000000001" y="760" as="sourcePoint" />
            <mxPoint x="560" y="760" as="targetPoint" />
          </mxGeometry>
        </mxCell>
        <mxCell id="ckuAWDI_YxkWUVPJzcsw-75" value="Start:9/10/2021&amp;nbsp; &amp;nbsp;&amp;nbsp;" style="text;html=1;strokeColor=none;fillColor=none;align=center;verticalAlign=middle;whiteSpace=wrap;rounded=0;opacity=50;" vertex="1" parent="1">
          <mxGeometry x="340" y="700" width="110" height="30" as="geometry" />
        </mxCell>
        <mxCell id="ckuAWDI_YxkWUVPJzcsw-76" value="ID: 4" style="text;html=1;strokeColor=none;fillColor=none;align=center;verticalAlign=middle;whiteSpace=wrap;rounded=0;opacity=50;" vertex="1" parent="1">
          <mxGeometry x="450" y="700" width="90" height="30" as="geometry" />
        </mxCell>
        <mxCell id="ckuAWDI_YxkWUVPJzcsw-77" value="Finish:9/25/2021" style="text;html=1;strokeColor=none;fillColor=none;align=center;verticalAlign=middle;whiteSpace=wrap;rounded=0;opacity=50;" vertex="1" parent="1">
          <mxGeometry x="340" y="730" width="110" height="30" as="geometry" />
        </mxCell>
        <mxCell id="ckuAWDI_YxkWUVPJzcsw-78" value="Dur:&amp;nbsp; &amp;nbsp; 15&amp;nbsp; day" style="text;html=1;strokeColor=none;fillColor=none;align=center;verticalAlign=middle;whiteSpace=wrap;rounded=0;opacity=50;" vertex="1" parent="1">
          <mxGeometry x="450" y="730" width="90" height="30" as="geometry" />
        </mxCell>
        <mxCell id="ckuAWDI_YxkWUVPJzcsw-79" value="res:" style="text;html=1;strokeColor=none;fillColor=none;align=center;verticalAlign=middle;whiteSpace=wrap;rounded=0;opacity=50;" vertex="1" parent="1">
          <mxGeometry x="340" y="760" width="60" height="30" as="geometry" />
        </mxCell>
        <mxCell id="ckuAWDI_YxkWUVPJzcsw-80" value="制定项目章程" style="text;html=1;strokeColor=none;fillColor=none;align=center;verticalAlign=middle;whiteSpace=wrap;rounded=0;opacity=50;" vertex="1" parent="1">
          <mxGeometry x="340" y="660" width="105" height="30" as="geometry" />
        </mxCell>
        <mxCell id="ckuAWDI_YxkWUVPJzcsw-81" value="" style="endArrow=classic;html=1;rounded=0;entryX=0;entryY=0.25;entryDx=0;entryDy=0;" edge="1" parent="1" target="ckuAWDI_YxkWUVPJzcsw-59">
          <mxGeometry width="50" height="50" relative="1" as="geometry">
            <mxPoint x="270" y="490" as="sourcePoint" />
            <mxPoint x="320" y="440" as="targetPoint" />
          </mxGeometry>
        </mxCell>
        <mxCell id="ckuAWDI_YxkWUVPJzcsw-82" value="" style="endArrow=classic;html=1;rounded=0;exitX=1;exitY=0.5;exitDx=0;exitDy=0;entryX=0;entryY=0.75;entryDx=0;entryDy=0;" edge="1" parent="1" source="ckuAWDI_YxkWUVPJzcsw-14" target="ckuAWDI_YxkWUVPJzcsw-65">
          <mxGeometry width="50" height="50" relative="1" as="geometry">
            <mxPoint x="330" y="500" as="sourcePoint" />
            <mxPoint x="380" y="450" as="targetPoint" />
          </mxGeometry>
        </mxCell>
        <mxCell id="ckuAWDI_YxkWUVPJzcsw-84" value="" style="endArrow=classic;html=1;rounded=0;exitX=0.999;exitY=0.938;exitDx=0;exitDy=0;exitPerimeter=0;entryX=-0.037;entryY=0.639;entryDx=0;entryDy=0;entryPerimeter=0;" edge="1" parent="1" source="ckuAWDI_YxkWUVPJzcsw-14" target="ckuAWDI_YxkWUVPJzcsw-75">
          <mxGeometry width="50" height="50" relative="1" as="geometry">
            <mxPoint x="330" y="500" as="sourcePoint" />
            <mxPoint x="380" y="450" as="targetPoint" />
          </mxGeometry>
        </mxCell>
        <mxCell id="ckuAWDI_YxkWUVPJzcsw-86" value="" style="rounded=0;whiteSpace=wrap;html=1;opacity=50;" vertex="1" parent="1">
          <mxGeometry x="640" y="480" width="220" height="130" as="geometry" />
        </mxCell>
        <mxCell id="ckuAWDI_YxkWUVPJzcsw-87" value="" style="endArrow=none;html=1;rounded=0;entryX=1;entryY=0.25;entryDx=0;entryDy=0;exitX=0;exitY=0.25;exitDx=0;exitDy=0;" edge="1" parent="1" source="ckuAWDI_YxkWUVPJzcsw-86" target="ckuAWDI_YxkWUVPJzcsw-86">
          <mxGeometry width="50" height="50" relative="1" as="geometry">
            <mxPoint x="650" y="550" as="sourcePoint" />
            <mxPoint x="700" y="500" as="targetPoint" />
          </mxGeometry>
        </mxCell>
        <mxCell id="ckuAWDI_YxkWUVPJzcsw-88" value="" style="endArrow=none;html=1;rounded=0;entryX=1;entryY=0.25;entryDx=0;entryDy=0;exitX=0;exitY=0.25;exitDx=0;exitDy=0;" edge="1" parent="1">
          <mxGeometry width="50" height="50" relative="1" as="geometry">
            <mxPoint x="640.0000000000001" y="544.5" as="sourcePoint" />
            <mxPoint x="860" y="544.5" as="targetPoint" />
          </mxGeometry>
        </mxCell>
        <mxCell id="ckuAWDI_YxkWUVPJzcsw-89" value="" style="endArrow=none;html=1;rounded=0;entryX=1;entryY=0.25;entryDx=0;entryDy=0;exitX=0;exitY=0.25;exitDx=0;exitDy=0;" edge="1" parent="1">
          <mxGeometry width="50" height="50" relative="1" as="geometry">
            <mxPoint x="640.0000000000001" y="580" as="sourcePoint" />
            <mxPoint x="860" y="580" as="targetPoint" />
          </mxGeometry>
        </mxCell>
        <mxCell id="ckuAWDI_YxkWUVPJzcsw-90" value="Start:9/25/2021&amp;nbsp; &amp;nbsp;&amp;nbsp;" style="text;html=1;strokeColor=none;fillColor=none;align=center;verticalAlign=middle;whiteSpace=wrap;rounded=0;opacity=50;" vertex="1" parent="1">
          <mxGeometry x="640" y="520" width="110" height="30" as="geometry" />
        </mxCell>
        <mxCell id="ckuAWDI_YxkWUVPJzcsw-91" value="ID: 5" style="text;html=1;strokeColor=none;fillColor=none;align=center;verticalAlign=middle;whiteSpace=wrap;rounded=0;opacity=50;" vertex="1" parent="1">
          <mxGeometry x="750" y="520" width="90" height="30" as="geometry" />
        </mxCell>
        <mxCell id="ckuAWDI_YxkWUVPJzcsw-92" value="Finish:10/1/2021" style="text;html=1;strokeColor=none;fillColor=none;align=center;verticalAlign=middle;whiteSpace=wrap;rounded=0;opacity=50;" vertex="1" parent="1">
          <mxGeometry x="640" y="550" width="110" height="30" as="geometry" />
        </mxCell>
        <mxCell id="ckuAWDI_YxkWUVPJzcsw-93" value="Dur:&amp;nbsp; &amp;nbsp; 5&amp;nbsp; day" style="text;html=1;strokeColor=none;fillColor=none;align=center;verticalAlign=middle;whiteSpace=wrap;rounded=0;opacity=50;" vertex="1" parent="1">
          <mxGeometry x="750" y="550" width="90" height="30" as="geometry" />
        </mxCell>
        <mxCell id="ckuAWDI_YxkWUVPJzcsw-94" value="res:" style="text;html=1;strokeColor=none;fillColor=none;align=center;verticalAlign=middle;whiteSpace=wrap;rounded=0;opacity=50;" vertex="1" parent="1">
          <mxGeometry x="640" y="580" width="60" height="30" as="geometry" />
        </mxCell>
        <mxCell id="ckuAWDI_YxkWUVPJzcsw-95" value="确定项目需求" style="text;html=1;strokeColor=none;fillColor=none;align=center;verticalAlign=middle;whiteSpace=wrap;rounded=0;opacity=50;" vertex="1" parent="1">
          <mxGeometry x="640" y="480" width="105" height="30" as="geometry" />
        </mxCell>
        <mxCell id="ckuAWDI_YxkWUVPJzcsw-96" value="" style="endArrow=classic;html=1;rounded=0;exitX=1;exitY=0.5;exitDx=0;exitDy=0;entryX=0;entryY=0;entryDx=0;entryDy=0;" edge="1" parent="1" source="ckuAWDI_YxkWUVPJzcsw-51" target="ckuAWDI_YxkWUVPJzcsw-90">
          <mxGeometry width="50" height="50" relative="1" as="geometry">
            <mxPoint x="550" y="520" as="sourcePoint" />
            <mxPoint x="600" y="470" as="targetPoint" />
          </mxGeometry>
        </mxCell>
        <mxCell id="ckuAWDI_YxkWUVPJzcsw-97" value="" style="endArrow=classic;html=1;rounded=0;exitX=1;exitY=0.5;exitDx=0;exitDy=0;entryX=0;entryY=0.75;entryDx=0;entryDy=0;" edge="1" parent="1" source="ckuAWDI_YxkWUVPJzcsw-61" target="ckuAWDI_YxkWUVPJzcsw-90">
          <mxGeometry width="50" height="50" relative="1" as="geometry">
            <mxPoint x="550" y="520" as="sourcePoint" />
            <mxPoint x="600" y="470" as="targetPoint" />
          </mxGeometry>
        </mxCell>
        <mxCell id="ckuAWDI_YxkWUVPJzcsw-98" value="" style="endArrow=classic;html=1;rounded=0;exitX=1;exitY=0.5;exitDx=0;exitDy=0;entryX=0;entryY=0.5;entryDx=0;entryDy=0;" edge="1" parent="1" source="ckuAWDI_YxkWUVPJzcsw-71" target="ckuAWDI_YxkWUVPJzcsw-94">
          <mxGeometry width="50" height="50" relative="1" as="geometry">
            <mxPoint x="550" y="520" as="sourcePoint" />
            <mxPoint x="600" y="470" as="targetPoint" />
          </mxGeometry>
        </mxCell>
        <mxCell id="ckuAWDI_YxkWUVPJzcsw-99" value="" style="rounded=0;whiteSpace=wrap;html=1;opacity=50;" vertex="1" parent="1">
          <mxGeometry x="920" y="290" width="220" height="130" as="geometry" />
        </mxCell>
        <mxCell id="ckuAWDI_YxkWUVPJzcsw-100" value="" style="endArrow=none;html=1;rounded=0;entryX=1;entryY=0.25;entryDx=0;entryDy=0;exitX=0;exitY=0.25;exitDx=0;exitDy=0;" edge="1" parent="1" source="ckuAWDI_YxkWUVPJzcsw-99" target="ckuAWDI_YxkWUVPJzcsw-99">
          <mxGeometry width="50" height="50" relative="1" as="geometry">
            <mxPoint x="930" y="360" as="sourcePoint" />
            <mxPoint x="980" y="310" as="targetPoint" />
          </mxGeometry>
        </mxCell>
        <mxCell id="ckuAWDI_YxkWUVPJzcsw-101" value="" style="endArrow=none;html=1;rounded=0;entryX=1;entryY=0.25;entryDx=0;entryDy=0;exitX=0;exitY=0.25;exitDx=0;exitDy=0;" edge="1" parent="1">
          <mxGeometry width="50" height="50" relative="1" as="geometry">
            <mxPoint x="920" y="354.5" as="sourcePoint" />
            <mxPoint x="1140" y="354.5" as="targetPoint" />
          </mxGeometry>
        </mxCell>
        <mxCell id="ckuAWDI_YxkWUVPJzcsw-102" value="" style="endArrow=none;html=1;rounded=0;entryX=1;entryY=0.25;entryDx=0;entryDy=0;exitX=0;exitY=0.25;exitDx=0;exitDy=0;" edge="1" parent="1">
          <mxGeometry width="50" height="50" relative="1" as="geometry">
            <mxPoint x="920" y="390" as="sourcePoint" />
            <mxPoint x="1140" y="390" as="targetPoint" />
          </mxGeometry>
        </mxCell>
        <mxCell id="ckuAWDI_YxkWUVPJzcsw-103" value="Start:10/1/2021&amp;nbsp; &amp;nbsp;&amp;nbsp;" style="text;html=1;strokeColor=none;fillColor=none;align=center;verticalAlign=middle;whiteSpace=wrap;rounded=0;opacity=50;" vertex="1" parent="1">
          <mxGeometry x="920" y="330" width="110" height="30" as="geometry" />
        </mxCell>
        <mxCell id="ckuAWDI_YxkWUVPJzcsw-104" value="ID: 6" style="text;html=1;strokeColor=none;fillColor=none;align=center;verticalAlign=middle;whiteSpace=wrap;rounded=0;opacity=50;" vertex="1" parent="1">
          <mxGeometry x="1030" y="330" width="90" height="30" as="geometry" />
        </mxCell>
        <mxCell id="ckuAWDI_YxkWUVPJzcsw-105" value="Finish:10/20/2021" style="text;html=1;strokeColor=none;fillColor=none;align=center;verticalAlign=middle;whiteSpace=wrap;rounded=0;opacity=50;" vertex="1" parent="1">
          <mxGeometry x="920" y="360" width="110" height="30" as="geometry" />
        </mxCell>
        <mxCell id="ckuAWDI_YxkWUVPJzcsw-106" value="Dur:&amp;nbsp; &amp;nbsp; 20&amp;nbsp; day" style="text;html=1;strokeColor=none;fillColor=none;align=center;verticalAlign=middle;whiteSpace=wrap;rounded=0;opacity=50;" vertex="1" parent="1">
          <mxGeometry x="1030" y="360" width="90" height="30" as="geometry" />
        </mxCell>
        <mxCell id="ckuAWDI_YxkWUVPJzcsw-107" value="res:" style="text;html=1;strokeColor=none;fillColor=none;align=center;verticalAlign=middle;whiteSpace=wrap;rounded=0;opacity=50;" vertex="1" parent="1">
          <mxGeometry x="920" y="390" width="60" height="30" as="geometry" />
        </mxCell>
        <mxCell id="ckuAWDI_YxkWUVPJzcsw-108" value="制定项目范围说明" style="text;html=1;strokeColor=none;fillColor=none;align=center;verticalAlign=middle;whiteSpace=wrap;rounded=0;opacity=50;" vertex="1" parent="1">
          <mxGeometry x="920" y="290" width="105" height="30" as="geometry" />
        </mxCell>
        <mxCell id="ckuAWDI_YxkWUVPJzcsw-109" value="" style="rounded=0;whiteSpace=wrap;html=1;opacity=50;" vertex="1" parent="1">
          <mxGeometry x="920" y="480" width="220" height="130" as="geometry" />
        </mxCell>
        <mxCell id="ckuAWDI_YxkWUVPJzcsw-110" value="" style="endArrow=none;html=1;rounded=0;entryX=1;entryY=0.25;entryDx=0;entryDy=0;exitX=0;exitY=0.25;exitDx=0;exitDy=0;" edge="1" parent="1" source="ckuAWDI_YxkWUVPJzcsw-109" target="ckuAWDI_YxkWUVPJzcsw-109">
          <mxGeometry width="50" height="50" relative="1" as="geometry">
            <mxPoint x="930" y="550" as="sourcePoint" />
            <mxPoint x="980" y="500" as="targetPoint" />
          </mxGeometry>
        </mxCell>
        <mxCell id="ckuAWDI_YxkWUVPJzcsw-111" value="" style="endArrow=none;html=1;rounded=0;entryX=1;entryY=0.25;entryDx=0;entryDy=0;exitX=0;exitY=0.25;exitDx=0;exitDy=0;" edge="1" parent="1">
          <mxGeometry width="50" height="50" relative="1" as="geometry">
            <mxPoint x="920" y="544.5" as="sourcePoint" />
            <mxPoint x="1140" y="544.5" as="targetPoint" />
          </mxGeometry>
        </mxCell>
        <mxCell id="ckuAWDI_YxkWUVPJzcsw-112" value="" style="endArrow=none;html=1;rounded=0;entryX=1;entryY=0.25;entryDx=0;entryDy=0;exitX=0;exitY=0.25;exitDx=0;exitDy=0;" edge="1" parent="1">
          <mxGeometry width="50" height="50" relative="1" as="geometry">
            <mxPoint x="920" y="580" as="sourcePoint" />
            <mxPoint x="1140" y="580" as="targetPoint" />
          </mxGeometry>
        </mxCell>
        <mxCell id="ckuAWDI_YxkWUVPJzcsw-113" value="Start:10/1/2021&amp;nbsp; &amp;nbsp;&amp;nbsp;" style="text;html=1;strokeColor=none;fillColor=none;align=center;verticalAlign=middle;whiteSpace=wrap;rounded=0;opacity=50;" vertex="1" parent="1">
          <mxGeometry x="920" y="520" width="110" height="30" as="geometry" />
        </mxCell>
        <mxCell id="ckuAWDI_YxkWUVPJzcsw-114" value="ID: 7" style="text;html=1;strokeColor=none;fillColor=none;align=center;verticalAlign=middle;whiteSpace=wrap;rounded=0;opacity=50;" vertex="1" parent="1">
          <mxGeometry x="1030" y="520" width="90" height="30" as="geometry" />
        </mxCell>
        <mxCell id="ckuAWDI_YxkWUVPJzcsw-115" value="Finish:10/7/2021" style="text;html=1;strokeColor=none;fillColor=none;align=center;verticalAlign=middle;whiteSpace=wrap;rounded=0;opacity=50;" vertex="1" parent="1">
          <mxGeometry x="920" y="550" width="110" height="30" as="geometry" />
        </mxCell>
        <mxCell id="ckuAWDI_YxkWUVPJzcsw-116" value="Dur:&amp;nbsp; &amp;nbsp; 7&amp;nbsp; day" style="text;html=1;strokeColor=none;fillColor=none;align=center;verticalAlign=middle;whiteSpace=wrap;rounded=0;opacity=50;" vertex="1" parent="1">
          <mxGeometry x="1030" y="550" width="90" height="30" as="geometry" />
        </mxCell>
        <mxCell id="ckuAWDI_YxkWUVPJzcsw-117" value="res:" style="text;html=1;strokeColor=none;fillColor=none;align=center;verticalAlign=middle;whiteSpace=wrap;rounded=0;opacity=50;" vertex="1" parent="1">
          <mxGeometry x="920" y="580" width="60" height="30" as="geometry" />
        </mxCell>
        <mxCell id="ckuAWDI_YxkWUVPJzcsw-118" value="确定团队分工" style="text;html=1;strokeColor=none;fillColor=none;align=center;verticalAlign=middle;whiteSpace=wrap;rounded=0;opacity=50;" vertex="1" parent="1">
          <mxGeometry x="920" y="480" width="105" height="30" as="geometry" />
        </mxCell>
        <mxCell id="ckuAWDI_YxkWUVPJzcsw-119" value="" style="rounded=0;whiteSpace=wrap;html=1;opacity=50;" vertex="1" parent="1">
          <mxGeometry x="920" y="660" width="220" height="130" as="geometry" />
        </mxCell>
        <mxCell id="ckuAWDI_YxkWUVPJzcsw-120" value="" style="endArrow=none;html=1;rounded=0;entryX=1;entryY=0.25;entryDx=0;entryDy=0;exitX=0;exitY=0.25;exitDx=0;exitDy=0;" edge="1" parent="1" source="ckuAWDI_YxkWUVPJzcsw-119" target="ckuAWDI_YxkWUVPJzcsw-119">
          <mxGeometry width="50" height="50" relative="1" as="geometry">
            <mxPoint x="930" y="730" as="sourcePoint" />
            <mxPoint x="980" y="680" as="targetPoint" />
          </mxGeometry>
        </mxCell>
        <mxCell id="ckuAWDI_YxkWUVPJzcsw-121" value="" style="endArrow=none;html=1;rounded=0;entryX=1;entryY=0.25;entryDx=0;entryDy=0;exitX=0;exitY=0.25;exitDx=0;exitDy=0;" edge="1" parent="1">
          <mxGeometry width="50" height="50" relative="1" as="geometry">
            <mxPoint x="920" y="724.5" as="sourcePoint" />
            <mxPoint x="1140" y="724.5" as="targetPoint" />
          </mxGeometry>
        </mxCell>
        <mxCell id="ckuAWDI_YxkWUVPJzcsw-122" value="" style="endArrow=none;html=1;rounded=0;entryX=1;entryY=0.25;entryDx=0;entryDy=0;exitX=0;exitY=0.25;exitDx=0;exitDy=0;" edge="1" parent="1">
          <mxGeometry width="50" height="50" relative="1" as="geometry">
            <mxPoint x="920" y="760" as="sourcePoint" />
            <mxPoint x="1140" y="760" as="targetPoint" />
          </mxGeometry>
        </mxCell>
        <mxCell id="ckuAWDI_YxkWUVPJzcsw-123" value="Start:10/1/2021&amp;nbsp; &amp;nbsp;&amp;nbsp;" style="text;html=1;strokeColor=none;fillColor=none;align=center;verticalAlign=middle;whiteSpace=wrap;rounded=0;opacity=50;" vertex="1" parent="1">
          <mxGeometry x="920" y="700" width="110" height="30" as="geometry" />
        </mxCell>
        <mxCell id="ckuAWDI_YxkWUVPJzcsw-124" value="ID: 8" style="text;html=1;strokeColor=none;fillColor=none;align=center;verticalAlign=middle;whiteSpace=wrap;rounded=0;opacity=50;" vertex="1" parent="1">
          <mxGeometry x="1030" y="700" width="90" height="30" as="geometry" />
        </mxCell>
        <mxCell id="ckuAWDI_YxkWUVPJzcsw-125" value="Finish:10/20/2021" style="text;html=1;strokeColor=none;fillColor=none;align=center;verticalAlign=middle;whiteSpace=wrap;rounded=0;opacity=50;" vertex="1" parent="1">
          <mxGeometry x="920" y="730" width="110" height="30" as="geometry" />
        </mxCell>
        <mxCell id="ckuAWDI_YxkWUVPJzcsw-126" value="Dur:&amp;nbsp; &amp;nbsp; 20&amp;nbsp; day" style="text;html=1;strokeColor=none;fillColor=none;align=center;verticalAlign=middle;whiteSpace=wrap;rounded=0;opacity=50;" vertex="1" parent="1">
          <mxGeometry x="1030" y="730" width="90" height="30" as="geometry" />
        </mxCell>
        <mxCell id="ckuAWDI_YxkWUVPJzcsw-127" value="res:" style="text;html=1;strokeColor=none;fillColor=none;align=center;verticalAlign=middle;whiteSpace=wrap;rounded=0;opacity=50;" vertex="1" parent="1">
          <mxGeometry x="920" y="760" width="60" height="30" as="geometry" />
        </mxCell>
        <mxCell id="ckuAWDI_YxkWUVPJzcsw-128" value="制定项目进度" style="text;html=1;strokeColor=none;fillColor=none;align=center;verticalAlign=middle;whiteSpace=wrap;rounded=0;opacity=50;" vertex="1" parent="1">
          <mxGeometry x="920" y="660" width="105" height="30" as="geometry" />
        </mxCell>
        <mxCell id="ckuAWDI_YxkWUVPJzcsw-129" value="" style="endArrow=classic;html=1;rounded=0;entryX=0;entryY=0.75;entryDx=0;entryDy=0;" edge="1" parent="1" target="ckuAWDI_YxkWUVPJzcsw-103">
          <mxGeometry width="50" height="50" relative="1" as="geometry">
            <mxPoint x="860" y="490" as="sourcePoint" />
            <mxPoint x="910" y="440" as="targetPoint" />
          </mxGeometry>
        </mxCell>
        <mxCell id="ckuAWDI_YxkWUVPJzcsw-130" value="" style="endArrow=classic;html=1;rounded=0;exitX=1;exitY=0.923;exitDx=0;exitDy=0;exitPerimeter=0;entryX=0;entryY=1;entryDx=0;entryDy=0;" edge="1" parent="1" source="ckuAWDI_YxkWUVPJzcsw-86" target="ckuAWDI_YxkWUVPJzcsw-123">
          <mxGeometry width="50" height="50" relative="1" as="geometry">
            <mxPoint x="800" y="570" as="sourcePoint" />
            <mxPoint x="850" y="520" as="targetPoint" />
          </mxGeometry>
        </mxCell>
        <mxCell id="ckuAWDI_YxkWUVPJzcsw-131" value="" style="endArrow=classic;html=1;rounded=0;exitX=1;exitY=0.5;exitDx=0;exitDy=0;entryX=0;entryY=0;entryDx=0;entryDy=0;" edge="1" parent="1" source="ckuAWDI_YxkWUVPJzcsw-86" target="ckuAWDI_YxkWUVPJzcsw-115">
          <mxGeometry width="50" height="50" relative="1" as="geometry">
            <mxPoint x="800" y="570" as="sourcePoint" />
            <mxPoint x="850" y="520" as="targetPoint" />
          </mxGeometry>
        </mxCell>
        <mxCell id="ckuAWDI_YxkWUVPJzcsw-132" value="" style="rounded=0;whiteSpace=wrap;html=1;opacity=50;" vertex="1" parent="1">
          <mxGeometry x="1240" y="350" width="220" height="130" as="geometry" />
        </mxCell>
        <mxCell id="ckuAWDI_YxkWUVPJzcsw-133" value="" style="endArrow=none;html=1;rounded=0;entryX=1;entryY=0.25;entryDx=0;entryDy=0;exitX=0;exitY=0.25;exitDx=0;exitDy=0;" edge="1" parent="1" source="ckuAWDI_YxkWUVPJzcsw-132" target="ckuAWDI_YxkWUVPJzcsw-132">
          <mxGeometry width="50" height="50" relative="1" as="geometry">
            <mxPoint x="1250" y="420" as="sourcePoint" />
            <mxPoint x="1300" y="370" as="targetPoint" />
          </mxGeometry>
        </mxCell>
        <mxCell id="ckuAWDI_YxkWUVPJzcsw-134" value="" style="endArrow=none;html=1;rounded=0;entryX=1;entryY=0.25;entryDx=0;entryDy=0;exitX=0;exitY=0.25;exitDx=0;exitDy=0;" edge="1" parent="1">
          <mxGeometry width="50" height="50" relative="1" as="geometry">
            <mxPoint x="1240" y="414.5" as="sourcePoint" />
            <mxPoint x="1460" y="414.5" as="targetPoint" />
          </mxGeometry>
        </mxCell>
        <mxCell id="ckuAWDI_YxkWUVPJzcsw-135" value="" style="endArrow=none;html=1;rounded=0;entryX=1;entryY=0.25;entryDx=0;entryDy=0;exitX=0;exitY=0.25;exitDx=0;exitDy=0;" edge="1" parent="1">
          <mxGeometry width="50" height="50" relative="1" as="geometry">
            <mxPoint x="1240" y="450" as="sourcePoint" />
            <mxPoint x="1460" y="450" as="targetPoint" />
          </mxGeometry>
        </mxCell>
        <mxCell id="ckuAWDI_YxkWUVPJzcsw-136" value="Start:10/20/2021&amp;nbsp; &amp;nbsp;&amp;nbsp;" style="text;html=1;strokeColor=none;fillColor=none;align=center;verticalAlign=middle;whiteSpace=wrap;rounded=0;opacity=50;" vertex="1" parent="1">
          <mxGeometry x="1240" y="390" width="110" height="30" as="geometry" />
        </mxCell>
        <mxCell id="ckuAWDI_YxkWUVPJzcsw-137" value="ID: 9" style="text;html=1;strokeColor=none;fillColor=none;align=center;verticalAlign=middle;whiteSpace=wrap;rounded=0;opacity=50;" vertex="1" parent="1">
          <mxGeometry x="1350" y="390" width="90" height="30" as="geometry" />
        </mxCell>
        <mxCell id="ckuAWDI_YxkWUVPJzcsw-138" value="Finish:12/1/2021" style="text;html=1;strokeColor=none;fillColor=none;align=center;verticalAlign=middle;whiteSpace=wrap;rounded=0;opacity=50;" vertex="1" parent="1">
          <mxGeometry x="1240" y="420" width="110" height="30" as="geometry" />
        </mxCell>
        <mxCell id="ckuAWDI_YxkWUVPJzcsw-139" value="Dur:&amp;nbsp; &amp;nbsp; 40&amp;nbsp; day" style="text;html=1;strokeColor=none;fillColor=none;align=center;verticalAlign=middle;whiteSpace=wrap;rounded=0;opacity=50;" vertex="1" parent="1">
          <mxGeometry x="1350" y="420" width="90" height="30" as="geometry" />
        </mxCell>
        <mxCell id="ckuAWDI_YxkWUVPJzcsw-140" value="res:" style="text;html=1;strokeColor=none;fillColor=none;align=center;verticalAlign=middle;whiteSpace=wrap;rounded=0;opacity=50;" vertex="1" parent="1">
          <mxGeometry x="1240" y="450" width="60" height="30" as="geometry" />
        </mxCell>
        <mxCell id="ckuAWDI_YxkWUVPJzcsw-141" value="核心算法的研究与实现" style="text;html=1;strokeColor=none;fillColor=none;align=center;verticalAlign=middle;whiteSpace=wrap;rounded=0;opacity=50;" vertex="1" parent="1">
          <mxGeometry x="1240" y="350" width="140" height="30" as="geometry" />
        </mxCell>
        <mxCell id="ckuAWDI_YxkWUVPJzcsw-142" value="" style="endArrow=classic;html=1;rounded=0;entryX=0;entryY=0.25;entryDx=0;entryDy=0;" edge="1" parent="1" target="ckuAWDI_YxkWUVPJzcsw-136">
          <mxGeometry width="50" height="50" relative="1" as="geometry">
            <mxPoint x="1140" y="350" as="sourcePoint" />
            <mxPoint x="1190" y="300" as="targetPoint" />
          </mxGeometry>
        </mxCell>
        <mxCell id="ckuAWDI_YxkWUVPJzcsw-143" value="" style="endArrow=classic;html=1;rounded=0;entryX=0;entryY=0.5;entryDx=0;entryDy=0;" edge="1" parent="1" target="ckuAWDI_YxkWUVPJzcsw-136">
          <mxGeometry width="50" height="50" relative="1" as="geometry">
            <mxPoint x="1140" y="540" as="sourcePoint" />
            <mxPoint x="1190" y="490" as="targetPoint" />
          </mxGeometry>
        </mxCell>
        <mxCell id="ckuAWDI_YxkWUVPJzcsw-144" value="" style="endArrow=classic;html=1;rounded=0;exitX=1.007;exitY=0.462;exitDx=0;exitDy=0;exitPerimeter=0;entryX=0;entryY=0.5;entryDx=0;entryDy=0;" edge="1" parent="1" source="ckuAWDI_YxkWUVPJzcsw-119" target="ckuAWDI_YxkWUVPJzcsw-138">
          <mxGeometry width="50" height="50" relative="1" as="geometry">
            <mxPoint x="1160" y="560" as="sourcePoint" />
            <mxPoint x="1210" y="510" as="targetPoint" />
          </mxGeometry>
        </mxCell>
        <mxCell id="ckuAWDI_YxkWUVPJzcsw-145" value="" style="rounded=0;whiteSpace=wrap;html=1;opacity=50;" vertex="1" parent="1">
          <mxGeometry x="1240" y="570" width="220" height="130" as="geometry" />
        </mxCell>
        <mxCell id="ckuAWDI_YxkWUVPJzcsw-146" value="" style="endArrow=none;html=1;rounded=0;entryX=1;entryY=0.25;entryDx=0;entryDy=0;exitX=0;exitY=0.25;exitDx=0;exitDy=0;" edge="1" parent="1" source="ckuAWDI_YxkWUVPJzcsw-145" target="ckuAWDI_YxkWUVPJzcsw-145">
          <mxGeometry width="50" height="50" relative="1" as="geometry">
            <mxPoint x="1250" y="640" as="sourcePoint" />
            <mxPoint x="1300" y="590" as="targetPoint" />
          </mxGeometry>
        </mxCell>
        <mxCell id="ckuAWDI_YxkWUVPJzcsw-147" value="" style="endArrow=none;html=1;rounded=0;entryX=1;entryY=0.25;entryDx=0;entryDy=0;exitX=0;exitY=0.25;exitDx=0;exitDy=0;" edge="1" parent="1">
          <mxGeometry width="50" height="50" relative="1" as="geometry">
            <mxPoint x="1240" y="634.5" as="sourcePoint" />
            <mxPoint x="1460" y="634.5" as="targetPoint" />
          </mxGeometry>
        </mxCell>
        <mxCell id="ckuAWDI_YxkWUVPJzcsw-148" value="" style="endArrow=none;html=1;rounded=0;entryX=1;entryY=0.25;entryDx=0;entryDy=0;exitX=0;exitY=0.25;exitDx=0;exitDy=0;" edge="1" parent="1">
          <mxGeometry width="50" height="50" relative="1" as="geometry">
            <mxPoint x="1240" y="670" as="sourcePoint" />
            <mxPoint x="1460" y="670" as="targetPoint" />
          </mxGeometry>
        </mxCell>
        <mxCell id="ckuAWDI_YxkWUVPJzcsw-149" value="Start:10/20/2021&amp;nbsp; &amp;nbsp;&amp;nbsp;" style="text;html=1;strokeColor=none;fillColor=none;align=center;verticalAlign=middle;whiteSpace=wrap;rounded=0;opacity=50;" vertex="1" parent="1">
          <mxGeometry x="1240" y="610" width="110" height="30" as="geometry" />
        </mxCell>
        <mxCell id="ckuAWDI_YxkWUVPJzcsw-150" value="ID: 11" style="text;html=1;strokeColor=none;fillColor=none;align=center;verticalAlign=middle;whiteSpace=wrap;rounded=0;opacity=50;" vertex="1" parent="1">
          <mxGeometry x="1350" y="610" width="90" height="30" as="geometry" />
        </mxCell>
        <mxCell id="ckuAWDI_YxkWUVPJzcsw-151" value="Finish:11/15/2021" style="text;html=1;strokeColor=none;fillColor=none;align=center;verticalAlign=middle;whiteSpace=wrap;rounded=0;opacity=50;" vertex="1" parent="1">
          <mxGeometry x="1240" y="640" width="110" height="30" as="geometry" />
        </mxCell>
        <mxCell id="ckuAWDI_YxkWUVPJzcsw-152" value="Dur:&amp;nbsp; &amp;nbsp; 25&amp;nbsp; day" style="text;html=1;strokeColor=none;fillColor=none;align=center;verticalAlign=middle;whiteSpace=wrap;rounded=0;opacity=50;" vertex="1" parent="1">
          <mxGeometry x="1350" y="640" width="90" height="30" as="geometry" />
        </mxCell>
        <mxCell id="ckuAWDI_YxkWUVPJzcsw-153" value="res:" style="text;html=1;strokeColor=none;fillColor=none;align=center;verticalAlign=middle;whiteSpace=wrap;rounded=0;opacity=50;" vertex="1" parent="1">
          <mxGeometry x="1240" y="670" width="60" height="30" as="geometry" />
        </mxCell>
        <mxCell id="ckuAWDI_YxkWUVPJzcsw-154" value="用户交互界面的设计与实现" style="text;html=1;strokeColor=none;fillColor=none;align=center;verticalAlign=middle;whiteSpace=wrap;rounded=0;opacity=50;" vertex="1" parent="1">
          <mxGeometry x="1240" y="570" width="150" height="30" as="geometry" />
        </mxCell>
        <mxCell id="ckuAWDI_YxkWUVPJzcsw-155" value="" style="rounded=0;whiteSpace=wrap;html=1;opacity=50;" vertex="1" parent="1">
          <mxGeometry x="1240" y="170" width="220" height="130" as="geometry" />
        </mxCell>
        <mxCell id="ckuAWDI_YxkWUVPJzcsw-156" value="" style="endArrow=none;html=1;rounded=0;entryX=1;entryY=0.25;entryDx=0;entryDy=0;exitX=0;exitY=0.25;exitDx=0;exitDy=0;" edge="1" parent="1" source="ckuAWDI_YxkWUVPJzcsw-155" target="ckuAWDI_YxkWUVPJzcsw-155">
          <mxGeometry width="50" height="50" relative="1" as="geometry">
            <mxPoint x="1250" y="240" as="sourcePoint" />
            <mxPoint x="1300" y="190" as="targetPoint" />
          </mxGeometry>
        </mxCell>
        <mxCell id="ckuAWDI_YxkWUVPJzcsw-157" value="" style="endArrow=none;html=1;rounded=0;entryX=1;entryY=0.25;entryDx=0;entryDy=0;exitX=0;exitY=0.25;exitDx=0;exitDy=0;" edge="1" parent="1">
          <mxGeometry width="50" height="50" relative="1" as="geometry">
            <mxPoint x="1240" y="234.5" as="sourcePoint" />
            <mxPoint x="1460" y="234.5" as="targetPoint" />
          </mxGeometry>
        </mxCell>
        <mxCell id="ckuAWDI_YxkWUVPJzcsw-158" value="" style="endArrow=none;html=1;rounded=0;entryX=1;entryY=0.25;entryDx=0;entryDy=0;exitX=0;exitY=0.25;exitDx=0;exitDy=0;" edge="1" parent="1">
          <mxGeometry width="50" height="50" relative="1" as="geometry">
            <mxPoint x="1240" y="270" as="sourcePoint" />
            <mxPoint x="1460" y="270" as="targetPoint" />
          </mxGeometry>
        </mxCell>
        <mxCell id="ckuAWDI_YxkWUVPJzcsw-159" value="Start:10/20/2021&amp;nbsp; &amp;nbsp;&amp;nbsp;" style="text;html=1;strokeColor=none;fillColor=none;align=center;verticalAlign=middle;whiteSpace=wrap;rounded=0;opacity=50;" vertex="1" parent="1">
          <mxGeometry x="1240" y="210" width="110" height="30" as="geometry" />
        </mxCell>
        <mxCell id="ckuAWDI_YxkWUVPJzcsw-160" value="ID: 10" style="text;html=1;strokeColor=none;fillColor=none;align=center;verticalAlign=middle;whiteSpace=wrap;rounded=0;opacity=50;" vertex="1" parent="1">
          <mxGeometry x="1350" y="210" width="90" height="30" as="geometry" />
        </mxCell>
        <mxCell id="ckuAWDI_YxkWUVPJzcsw-161" value="Finish:11/10/2021" style="text;html=1;strokeColor=none;fillColor=none;align=center;verticalAlign=middle;whiteSpace=wrap;rounded=0;opacity=50;" vertex="1" parent="1">
          <mxGeometry x="1240" y="240" width="110" height="30" as="geometry" />
        </mxCell>
        <mxCell id="ckuAWDI_YxkWUVPJzcsw-162" value="Dur:&amp;nbsp; &amp;nbsp; 20&amp;nbsp; day" style="text;html=1;strokeColor=none;fillColor=none;align=center;verticalAlign=middle;whiteSpace=wrap;rounded=0;opacity=50;" vertex="1" parent="1">
          <mxGeometry x="1350" y="240" width="90" height="30" as="geometry" />
        </mxCell>
        <mxCell id="ckuAWDI_YxkWUVPJzcsw-163" value="res:" style="text;html=1;strokeColor=none;fillColor=none;align=center;verticalAlign=middle;whiteSpace=wrap;rounded=0;opacity=50;" vertex="1" parent="1">
          <mxGeometry x="1240" y="270" width="60" height="30" as="geometry" />
        </mxCell>
        <mxCell id="ckuAWDI_YxkWUVPJzcsw-164" value="数据库的设计与实现" style="text;html=1;strokeColor=none;fillColor=none;align=center;verticalAlign=middle;whiteSpace=wrap;rounded=0;opacity=50;" vertex="1" parent="1">
          <mxGeometry x="1240" y="170" width="120" height="30" as="geometry" />
        </mxCell>
        <mxCell id="ckuAWDI_YxkWUVPJzcsw-166" value="" style="endArrow=classic;html=1;rounded=0;exitX=0;exitY=0.75;exitDx=0;exitDy=0;entryX=0;entryY=0;entryDx=0;entryDy=0;" edge="1" parent="1" source="ckuAWDI_YxkWUVPJzcsw-141" target="ckuAWDI_YxkWUVPJzcsw-161">
          <mxGeometry width="50" height="50" relative="1" as="geometry">
            <mxPoint x="1160" y="540" as="sourcePoint" />
            <mxPoint x="1210" y="490" as="targetPoint" />
            <Array as="points">
              <mxPoint x="1160" y="240" />
            </Array>
          </mxGeometry>
        </mxCell>
        <mxCell id="ckuAWDI_YxkWUVPJzcsw-167" value="" style="endArrow=classic;html=1;rounded=0;exitX=0;exitY=0.5;exitDx=0;exitDy=0;entryX=0;entryY=0.5;entryDx=0;entryDy=0;" edge="1" parent="1" source="ckuAWDI_YxkWUVPJzcsw-140" target="ckuAWDI_YxkWUVPJzcsw-151">
          <mxGeometry width="50" height="50" relative="1" as="geometry">
            <mxPoint x="1160" y="540" as="sourcePoint" />
            <mxPoint x="1210" y="490" as="targetPoint" />
            <Array as="points">
              <mxPoint x="1200" y="655" />
            </Array>
          </mxGeometry>
        </mxCell>
        <mxCell id="ckuAWDI_YxkWUVPJzcsw-168" value="" style="rounded=0;whiteSpace=wrap;html=1;opacity=50;" vertex="1" parent="1">
          <mxGeometry x="1550" y="350" width="220" height="130" as="geometry" />
        </mxCell>
        <mxCell id="ckuAWDI_YxkWUVPJzcsw-169" value="" style="endArrow=none;html=1;rounded=0;entryX=1;entryY=0.25;entryDx=0;entryDy=0;exitX=0;exitY=0.25;exitDx=0;exitDy=0;" edge="1" parent="1" source="ckuAWDI_YxkWUVPJzcsw-168" target="ckuAWDI_YxkWUVPJzcsw-168">
          <mxGeometry width="50" height="50" relative="1" as="geometry">
            <mxPoint x="1560" y="420" as="sourcePoint" />
            <mxPoint x="1610" y="370" as="targetPoint" />
          </mxGeometry>
        </mxCell>
        <mxCell id="ckuAWDI_YxkWUVPJzcsw-170" value="" style="endArrow=none;html=1;rounded=0;entryX=1;entryY=0.25;entryDx=0;entryDy=0;exitX=0;exitY=0.25;exitDx=0;exitDy=0;" edge="1" parent="1">
          <mxGeometry width="50" height="50" relative="1" as="geometry">
            <mxPoint x="1550" y="414.5" as="sourcePoint" />
            <mxPoint x="1770" y="414.5" as="targetPoint" />
          </mxGeometry>
        </mxCell>
        <mxCell id="ckuAWDI_YxkWUVPJzcsw-171" value="" style="endArrow=none;html=1;rounded=0;entryX=1;entryY=0.25;entryDx=0;entryDy=0;exitX=0;exitY=0.25;exitDx=0;exitDy=0;" edge="1" parent="1">
          <mxGeometry width="50" height="50" relative="1" as="geometry">
            <mxPoint x="1550" y="450" as="sourcePoint" />
            <mxPoint x="1770" y="450" as="targetPoint" />
          </mxGeometry>
        </mxCell>
        <mxCell id="ckuAWDI_YxkWUVPJzcsw-172" value="Start:12/1/2021&amp;nbsp; &amp;nbsp;&amp;nbsp;" style="text;html=1;strokeColor=none;fillColor=none;align=center;verticalAlign=middle;whiteSpace=wrap;rounded=0;opacity=50;" vertex="1" parent="1">
          <mxGeometry x="1550" y="390" width="110" height="30" as="geometry" />
        </mxCell>
        <mxCell id="ckuAWDI_YxkWUVPJzcsw-173" value="ID: 12" style="text;html=1;strokeColor=none;fillColor=none;align=center;verticalAlign=middle;whiteSpace=wrap;rounded=0;opacity=50;" vertex="1" parent="1">
          <mxGeometry x="1660" y="390" width="90" height="30" as="geometry" />
        </mxCell>
        <mxCell id="ckuAWDI_YxkWUVPJzcsw-174" value="Finish:12/10/2021" style="text;html=1;strokeColor=none;fillColor=none;align=center;verticalAlign=middle;whiteSpace=wrap;rounded=0;opacity=50;" vertex="1" parent="1">
          <mxGeometry x="1550" y="420" width="110" height="30" as="geometry" />
        </mxCell>
        <mxCell id="ckuAWDI_YxkWUVPJzcsw-175" value="Dur:&amp;nbsp; &amp;nbsp; 10&amp;nbsp; day" style="text;html=1;strokeColor=none;fillColor=none;align=center;verticalAlign=middle;whiteSpace=wrap;rounded=0;opacity=50;" vertex="1" parent="1">
          <mxGeometry x="1660" y="420" width="90" height="30" as="geometry" />
        </mxCell>
        <mxCell id="ckuAWDI_YxkWUVPJzcsw-176" value="res:" style="text;html=1;strokeColor=none;fillColor=none;align=center;verticalAlign=middle;whiteSpace=wrap;rounded=0;opacity=50;" vertex="1" parent="1">
          <mxGeometry x="1550" y="450" width="60" height="30" as="geometry" />
        </mxCell>
        <mxCell id="ckuAWDI_YxkWUVPJzcsw-177" value="测试服务器环境" style="text;html=1;strokeColor=none;fillColor=none;align=center;verticalAlign=middle;whiteSpace=wrap;rounded=0;opacity=50;" vertex="1" parent="1">
          <mxGeometry x="1550" y="350" width="150" height="30" as="geometry" />
        </mxCell>
        <mxCell id="ckuAWDI_YxkWUVPJzcsw-178" value="" style="endArrow=classic;html=1;rounded=0;exitX=1;exitY=0.5;exitDx=0;exitDy=0;entryX=0;entryY=0.5;entryDx=0;entryDy=0;" edge="1" parent="1" source="ckuAWDI_YxkWUVPJzcsw-155" target="ckuAWDI_YxkWUVPJzcsw-177">
          <mxGeometry width="50" height="50" relative="1" as="geometry">
            <mxPoint x="1690" y="500" as="sourcePoint" />
            <mxPoint x="1740" y="450" as="targetPoint" />
          </mxGeometry>
        </mxCell>
        <mxCell id="ckuAWDI_YxkWUVPJzcsw-179" value="" style="endArrow=classic;html=1;rounded=0;exitX=1;exitY=0.5;exitDx=0;exitDy=0;entryX=0;entryY=0.5;entryDx=0;entryDy=0;" edge="1" parent="1" source="ckuAWDI_YxkWUVPJzcsw-132" target="ckuAWDI_YxkWUVPJzcsw-172">
          <mxGeometry width="50" height="50" relative="1" as="geometry">
            <mxPoint x="1690" y="500" as="sourcePoint" />
            <mxPoint x="1740" y="450" as="targetPoint" />
          </mxGeometry>
        </mxCell>
        <mxCell id="ckuAWDI_YxkWUVPJzcsw-180" value="" style="endArrow=classic;html=1;rounded=0;entryX=0;entryY=0.25;entryDx=0;entryDy=0;" edge="1" parent="1" target="ckuAWDI_YxkWUVPJzcsw-174">
          <mxGeometry width="50" height="50" relative="1" as="geometry">
            <mxPoint x="1460" y="630" as="sourcePoint" />
            <mxPoint x="1740" y="450" as="targetPoint" />
          </mxGeometry>
        </mxCell>
        <mxCell id="ckuAWDI_YxkWUVPJzcsw-181" value="" style="rounded=0;whiteSpace=wrap;html=1;opacity=50;" vertex="1" parent="1">
          <mxGeometry x="1550" y="530" width="220" height="130" as="geometry" />
        </mxCell>
        <mxCell id="ckuAWDI_YxkWUVPJzcsw-182" value="" style="endArrow=none;html=1;rounded=0;entryX=1;entryY=0.25;entryDx=0;entryDy=0;exitX=0;exitY=0.25;exitDx=0;exitDy=0;" edge="1" parent="1" source="ckuAWDI_YxkWUVPJzcsw-181" target="ckuAWDI_YxkWUVPJzcsw-181">
          <mxGeometry width="50" height="50" relative="1" as="geometry">
            <mxPoint x="1560" y="600" as="sourcePoint" />
            <mxPoint x="1610" y="550" as="targetPoint" />
          </mxGeometry>
        </mxCell>
        <mxCell id="ckuAWDI_YxkWUVPJzcsw-183" value="" style="endArrow=none;html=1;rounded=0;entryX=1;entryY=0.25;entryDx=0;entryDy=0;exitX=0;exitY=0.25;exitDx=0;exitDy=0;" edge="1" parent="1">
          <mxGeometry width="50" height="50" relative="1" as="geometry">
            <mxPoint x="1550" y="594.5" as="sourcePoint" />
            <mxPoint x="1770" y="594.5" as="targetPoint" />
          </mxGeometry>
        </mxCell>
        <mxCell id="ckuAWDI_YxkWUVPJzcsw-184" value="" style="endArrow=none;html=1;rounded=0;entryX=1;entryY=0.25;entryDx=0;entryDy=0;exitX=0;exitY=0.25;exitDx=0;exitDy=0;" edge="1" parent="1">
          <mxGeometry width="50" height="50" relative="1" as="geometry">
            <mxPoint x="1550" y="630" as="sourcePoint" />
            <mxPoint x="1770" y="630" as="targetPoint" />
          </mxGeometry>
        </mxCell>
        <mxCell id="ckuAWDI_YxkWUVPJzcsw-185" value="Start:12/1/2021&amp;nbsp; &amp;nbsp;&amp;nbsp;" style="text;html=1;strokeColor=none;fillColor=none;align=center;verticalAlign=middle;whiteSpace=wrap;rounded=0;opacity=50;" vertex="1" parent="1">
          <mxGeometry x="1550" y="570" width="110" height="30" as="geometry" />
        </mxCell>
        <mxCell id="ckuAWDI_YxkWUVPJzcsw-186" value="ID: 13" style="text;html=1;strokeColor=none;fillColor=none;align=center;verticalAlign=middle;whiteSpace=wrap;rounded=0;opacity=50;" vertex="1" parent="1">
          <mxGeometry x="1660" y="570" width="90" height="30" as="geometry" />
        </mxCell>
        <mxCell id="ckuAWDI_YxkWUVPJzcsw-187" value="Finish:12/15/2021" style="text;html=1;strokeColor=none;fillColor=none;align=center;verticalAlign=middle;whiteSpace=wrap;rounded=0;opacity=50;" vertex="1" parent="1">
          <mxGeometry x="1550" y="600" width="110" height="30" as="geometry" />
        </mxCell>
        <mxCell id="ckuAWDI_YxkWUVPJzcsw-188" value="Dur:&amp;nbsp; &amp;nbsp; 15&amp;nbsp; day" style="text;html=1;strokeColor=none;fillColor=none;align=center;verticalAlign=middle;whiteSpace=wrap;rounded=0;opacity=50;" vertex="1" parent="1">
          <mxGeometry x="1660" y="600" width="90" height="30" as="geometry" />
        </mxCell>
        <mxCell id="ckuAWDI_YxkWUVPJzcsw-189" value="res:" style="text;html=1;strokeColor=none;fillColor=none;align=center;verticalAlign=middle;whiteSpace=wrap;rounded=0;opacity=50;" vertex="1" parent="1">
          <mxGeometry x="1550" y="630" width="60" height="30" as="geometry" />
        </mxCell>
        <mxCell id="ckuAWDI_YxkWUVPJzcsw-190" value="反馈项目问题" style="text;html=1;strokeColor=none;fillColor=none;align=center;verticalAlign=middle;whiteSpace=wrap;rounded=0;opacity=50;" vertex="1" parent="1">
          <mxGeometry x="1550" y="530" width="150" height="30" as="geometry" />
        </mxCell>
        <mxCell id="ckuAWDI_YxkWUVPJzcsw-191" value="" style="endArrow=classic;html=1;rounded=0;exitX=0;exitY=0.5;exitDx=0;exitDy=0;entryX=0;entryY=0.5;entryDx=0;entryDy=0;" edge="1" parent="1" source="ckuAWDI_YxkWUVPJzcsw-176" target="ckuAWDI_YxkWUVPJzcsw-187">
          <mxGeometry width="50" height="50" relative="1" as="geometry">
            <mxPoint x="1690" y="500" as="sourcePoint" />
            <mxPoint x="1740" y="450" as="targetPoint" />
            <Array as="points">
              <mxPoint x="1520" y="615" />
            </Array>
          </mxGeometry>
        </mxCell>
        <mxCell id="ckuAWDI_YxkWUVPJzcsw-192" value="" style="rounded=0;whiteSpace=wrap;html=1;opacity=50;" vertex="1" parent="1">
          <mxGeometry x="1880" y="410" width="220" height="130" as="geometry" />
        </mxCell>
        <mxCell id="ckuAWDI_YxkWUVPJzcsw-193" value="" style="endArrow=none;html=1;rounded=0;entryX=1;entryY=0.25;entryDx=0;entryDy=0;exitX=0;exitY=0.25;exitDx=0;exitDy=0;" edge="1" parent="1" source="ckuAWDI_YxkWUVPJzcsw-192" target="ckuAWDI_YxkWUVPJzcsw-192">
          <mxGeometry width="50" height="50" relative="1" as="geometry">
            <mxPoint x="1890" y="480" as="sourcePoint" />
            <mxPoint x="1940" y="430" as="targetPoint" />
          </mxGeometry>
        </mxCell>
        <mxCell id="ckuAWDI_YxkWUVPJzcsw-194" value="" style="endArrow=none;html=1;rounded=0;entryX=1;entryY=0.25;entryDx=0;entryDy=0;exitX=0;exitY=0.25;exitDx=0;exitDy=0;" edge="1" parent="1">
          <mxGeometry width="50" height="50" relative="1" as="geometry">
            <mxPoint x="1880" y="474.5" as="sourcePoint" />
            <mxPoint x="2100" y="474.5" as="targetPoint" />
          </mxGeometry>
        </mxCell>
        <mxCell id="ckuAWDI_YxkWUVPJzcsw-195" value="" style="endArrow=none;html=1;rounded=0;entryX=1;entryY=0.25;entryDx=0;entryDy=0;exitX=0;exitY=0.25;exitDx=0;exitDy=0;" edge="1" parent="1">
          <mxGeometry width="50" height="50" relative="1" as="geometry">
            <mxPoint x="1880" y="510" as="sourcePoint" />
            <mxPoint x="2100" y="510" as="targetPoint" />
          </mxGeometry>
        </mxCell>
        <mxCell id="ckuAWDI_YxkWUVPJzcsw-196" value="Start:12/15/2021&amp;nbsp; &amp;nbsp;&amp;nbsp;" style="text;html=1;strokeColor=none;fillColor=none;align=center;verticalAlign=middle;whiteSpace=wrap;rounded=0;opacity=50;" vertex="1" parent="1">
          <mxGeometry x="1880" y="450" width="110" height="30" as="geometry" />
        </mxCell>
        <mxCell id="ckuAWDI_YxkWUVPJzcsw-197" value="ID: 14" style="text;html=1;strokeColor=none;fillColor=none;align=center;verticalAlign=middle;whiteSpace=wrap;rounded=0;opacity=50;" vertex="1" parent="1">
          <mxGeometry x="1990" y="450" width="90" height="30" as="geometry" />
        </mxCell>
        <mxCell id="ckuAWDI_YxkWUVPJzcsw-198" value="Finish:12/20/2021" style="text;html=1;strokeColor=none;fillColor=none;align=center;verticalAlign=middle;whiteSpace=wrap;rounded=0;opacity=50;" vertex="1" parent="1">
          <mxGeometry x="1880" y="480" width="110" height="30" as="geometry" />
        </mxCell>
        <mxCell id="ckuAWDI_YxkWUVPJzcsw-199" value="Dur:&amp;nbsp; &amp;nbsp; 5&amp;nbsp; day" style="text;html=1;strokeColor=none;fillColor=none;align=center;verticalAlign=middle;whiteSpace=wrap;rounded=0;opacity=50;" vertex="1" parent="1">
          <mxGeometry x="1990" y="480" width="90" height="30" as="geometry" />
        </mxCell>
        <mxCell id="ckuAWDI_YxkWUVPJzcsw-200" value="res:" style="text;html=1;strokeColor=none;fillColor=none;align=center;verticalAlign=middle;whiteSpace=wrap;rounded=0;opacity=50;" vertex="1" parent="1">
          <mxGeometry x="1880" y="510" width="60" height="30" as="geometry" />
        </mxCell>
        <mxCell id="ckuAWDI_YxkWUVPJzcsw-201" value="项目收尾，上线，用户培训" style="text;html=1;strokeColor=none;fillColor=none;align=center;verticalAlign=middle;whiteSpace=wrap;rounded=0;opacity=50;" vertex="1" parent="1">
          <mxGeometry x="1880" y="410" width="150" height="30" as="geometry" />
        </mxCell>
        <mxCell id="ckuAWDI_YxkWUVPJzcsw-202" value="" style="endArrow=classic;html=1;rounded=0;exitX=1;exitY=0.5;exitDx=0;exitDy=0;entryX=0;entryY=0.5;entryDx=0;entryDy=0;" edge="1" parent="1" source="ckuAWDI_YxkWUVPJzcsw-168" target="ckuAWDI_YxkWUVPJzcsw-196">
          <mxGeometry width="50" height="50" relative="1" as="geometry">
            <mxPoint x="1800" y="520" as="sourcePoint" />
            <mxPoint x="1850" y="470" as="targetPoint" />
          </mxGeometry>
        </mxCell>
        <mxCell id="ckuAWDI_YxkWUVPJzcsw-203" value="" style="endArrow=classic;html=1;rounded=0;exitX=1.015;exitY=0.468;exitDx=0;exitDy=0;exitPerimeter=0;entryX=0;entryY=0.75;entryDx=0;entryDy=0;" edge="1" parent="1" source="ckuAWDI_YxkWUVPJzcsw-181" target="ckuAWDI_YxkWUVPJzcsw-198">
          <mxGeometry width="50" height="50" relative="1" as="geometry">
            <mxPoint x="1800" y="520" as="sourcePoint" />
            <mxPoint x="1850" y="470" as="targetPoint" />
          </mxGeometry>
        </mxCell>
        <mxCell id="ckuAWDI_YxkWUVPJzcsw-204" value="9/3/2021" style="rhombus;whiteSpace=wrap;html=1;opacity=50;" vertex="1" parent="1">
          <mxGeometry x="10" y="320" width="80" height="80" as="geometry" />
        </mxCell>
        <mxCell id="ckuAWDI_YxkWUVPJzcsw-205" value="" style="endArrow=classic;html=1;rounded=0;exitX=0.5;exitY=1;exitDx=0;exitDy=0;" edge="1" parent="1" source="ckuAWDI_YxkWUVPJzcsw-204">
          <mxGeometry width="50" height="50" relative="1" as="geometry">
            <mxPoint x="-110" y="460" as="sourcePoint" />
            <mxPoint x="50" y="470" as="targetPoint" />
          </mxGeometry>
        </mxCell>
        <mxCell id="ckuAWDI_YxkWUVPJzcsw-206" value="9/25/2021" style="rhombus;whiteSpace=wrap;html=1;opacity=50;" vertex="1" parent="1">
          <mxGeometry x="600" y="720" width="80" height="80" as="geometry" />
        </mxCell>
        <mxCell id="ckuAWDI_YxkWUVPJzcsw-207" value="" style="endArrow=classic;html=1;rounded=0;" edge="1" parent="1">
          <mxGeometry width="50" height="50" relative="1" as="geometry">
            <mxPoint x="640" y="630" as="sourcePoint" />
            <mxPoint x="640" y="720" as="targetPoint" />
            <Array as="points" />
          </mxGeometry>
        </mxCell>
        <mxCell id="ckuAWDI_YxkWUVPJzcsw-208" value="10/1/2021" style="rhombus;whiteSpace=wrap;html=1;opacity=50;" vertex="1" parent="1">
          <mxGeometry x="820" y="310" width="80" height="80" as="geometry" />
        </mxCell>
        <mxCell id="ckuAWDI_YxkWUVPJzcsw-209" value="" style="endArrow=classic;html=1;rounded=0;exitX=0.5;exitY=1;exitDx=0;exitDy=0;" edge="1" parent="1" source="ckuAWDI_YxkWUVPJzcsw-208">
          <mxGeometry width="50" height="50" relative="1" as="geometry">
            <mxPoint x="700" y="450" as="sourcePoint" />
            <mxPoint x="859.9999999999998" y="460" as="targetPoint" />
          </mxGeometry>
        </mxCell>
        <mxCell id="ckuAWDI_YxkWUVPJzcsw-210" value="10/20/2021" style="rhombus;whiteSpace=wrap;html=1;opacity=50;" vertex="1" parent="1">
          <mxGeometry x="1190" y="80" width="80" height="80" as="geometry" />
        </mxCell>
        <mxCell id="ckuAWDI_YxkWUVPJzcsw-211" value="" style="endArrow=classic;html=1;rounded=0;exitX=0.5;exitY=1;exitDx=0;exitDy=0;" edge="1" parent="1" source="ckuAWDI_YxkWUVPJzcsw-210">
          <mxGeometry width="50" height="50" relative="1" as="geometry">
            <mxPoint x="1070" y="220" as="sourcePoint" />
            <mxPoint x="1229.9999999999998" y="230" as="targetPoint" />
          </mxGeometry>
        </mxCell>
        <mxCell id="ckuAWDI_YxkWUVPJzcsw-212" value="12/1/2021" style="rhombus;whiteSpace=wrap;html=1;opacity=50;" vertex="1" parent="1">
          <mxGeometry x="1450" y="720" width="80" height="80" as="geometry" />
        </mxCell>
        <mxCell id="ckuAWDI_YxkWUVPJzcsw-213" value="" style="endArrow=classic;html=1;rounded=0;" edge="1" parent="1">
          <mxGeometry width="50" height="50" relative="1" as="geometry">
            <mxPoint x="1490" y="630" as="sourcePoint" />
            <mxPoint x="1490" y="720" as="targetPoint" />
            <Array as="points" />
          </mxGeometry>
        </mxCell>
        <mxCell id="ckuAWDI_YxkWUVPJzcsw-214" value="12/15/2021" style="rhombus;whiteSpace=wrap;html=1;opacity=50;" vertex="1" parent="1">
          <mxGeometry x="1830" y="250" width="80" height="80" as="geometry" />
        </mxCell>
        <mxCell id="ckuAWDI_YxkWUVPJzcsw-215" value="" style="endArrow=classic;html=1;rounded=0;exitX=0.5;exitY=1;exitDx=0;exitDy=0;" edge="1" parent="1" source="ckuAWDI_YxkWUVPJzcsw-214">
          <mxGeometry width="50" height="50" relative="1" as="geometry">
            <mxPoint x="1710" y="390" as="sourcePoint" />
            <mxPoint x="1870" y="400" as="targetPoint" />
          </mxGeometry>
        </mxCell>
      </root>
    </mxGraphModel>
  </diagram>
</mxfile>
